<!DOCTYPE svg PUBLIC "-//W3C//DTD SVG 1.1//EN" "http://www.w3.org/Graphics/SVG/1.1/DTD/svg11.dtd">
<!-- Uploaded to: SVG Repo, www.svgrepo.com, Transformed by: SVG Repo Mixer Tools -->
<svg width="800px" height="800px" viewBox="0 0 96 96" xmlns="http://www.w3.org/2000/svg" fill="#000000">
<g id="SVGRepo_bgCarrier" stroke-width="0"/>
<g id="SVGRepo_tracerCarrier" stroke-linecap="round" stroke-linejoin="round"/>
<g id="SVGRepo_iconCarrier">
<title/>
<circle cx="48" cy="48" r="46" style="fill:#ffffff"/>
<path d="M48,2c-1.35,0-2.68.07-4,.18a46,46,0,0,1,0,91.63c1.32.11,2.65.18,4,.18A46,46,0,0,0,48,2Z" style="fill:#e8f5e9"/>
<circle cx="48" cy="48" r="46" style="fill:none;stroke:#00796b;stroke-linecap:round;stroke-linejoin:round;stroke-width:4px"/>
<path d="M57,58H71.63A3.38,3.38,0,0,0,75,54.63V43.38A3.38,3.38,0,0,0,71.63,40H57V25.38A3.38,3.38,0,0,0,53.63,22H42.38A3.38,3.38,0,0,0,39,25.38V40H24.37A3.38,3.38,0,0,0,21,43.38V54.63A3.38,3.38,0,0,0,24.37,58H39V72.63A3.38,3.38,0,0,0,42.37,76H53.62A3.38,3.38,0,0,0,57,72.63Z" style="fill:#00796b"/>
<path d="M57,58H71.63A3.38,3.38,0,0,0,75,54.63V43.38A3.38,3.38,0,0,0,71.63,40H57V25.38A3.38,3.38,0,0,0,53.63,22H42.38A3.38,3.38,0,0,0,39,25.38V40H24.37A3.38,3.38,0,0,0,21,43.38V54.63A3.38,3.38,0,0,0,24.37,58H39V72.63A3.38,3.38,0,0,0,42.37,76H53.62A3.38,3.38,0,0,0,57,72.63Z" style="fill:#00796b"/>
<path d="M57,58H71.63A3.38,3.38,0,0,0,75,54.63V43.38A3.38,3.38,0,0,0,71.63,40H57V25.38A3.38,3.38,0,0,0,53.63,22H42.38A3.38,3.38,0,0,0,39,25.38V40H24.37A3.38,3.38,0,0,0,21,43.38V54.63A3.38,3.38,0,0,0,24.37,58H39V72.63A3.38,3.38,0,0,0,42.37,76H53.62A3.38,3.38,0,0,0,57,72.63Z" style="fill:none;stroke:#00796b;stroke-linecap:round;stroke-linejoin:round;stroke-width:4px"/>
</g>
</svg>